HIERARCHY
ROOT Hips
{
	OFFSET 0.000000 0.000000 0.000000
	CHANNELS 6 Xposition Yposition Zposition Xrotation Yrotation Zrotation
	JOINT LeftUpLeg_virtual
	{
		OFFSET 0.000000 0.000000 0.000000
		CHANNELS 3 Xrotation Yrotation Zrotation
		JOINT LeftUpLeg
		{
			OFFSET 10.205400 -3.823500 0.155100
			CHANNELS 3 Xrotation Yrotation Zrotation
			JOINT LeftLeg
			{
				OFFSET 0.708757 -12.982077 0.567790
				CHANNELS 3 Xrotation Yrotation Zrotation
				JOINT LeftFoot
				{
					OFFSET -0.708756 -10.717838 -2.184338
					CHANNELS 3 Xrotation Yrotation Zrotation
					JOINT LeftToeBase
					{
						OFFSET 0.108149 -7.191104 7.560241
						CHANNELS 3 Xrotation Yrotation Zrotation
						JOINT LeftToe_End
						{
							OFFSET 0.070230 0.081724 4.490308
							CHANNELS 3 Xrotation Yrotation Zrotation
							End Site
							{
								OFFSET 0 0 0
							}
						}
					}
				}
			}
		}
	}
	JOINT RightUpLeg_virtual
	{
		OFFSET 0.000000 0.000000 0.000000
		CHANNELS 3 Xrotation Yrotation Zrotation
		JOINT RightUpLeg
		{
			OFFSET -10.205400 -3.823500 0.005500
			CHANNELS 3 Xrotation Yrotation Zrotation
			JOINT RightLeg
			{
				OFFSET -0.708756 -12.982134 0.610632
				CHANNELS 3 Xrotation Yrotation Zrotation
				JOINT RightFoot
				{
					OFFSET 0.708754 -10.717769 -1.945823
					CHANNELS 3 Xrotation Yrotation Zrotation
					JOINT RightToeBase
					{
						OFFSET -0.108140 -7.191069 7.372968
						CHANNELS 3 Xrotation Yrotation Zrotation
						JOINT RightToe_End
						{
							OFFSET -0.070227 0.081735 4.479403
							CHANNELS 3 Xrotation Yrotation Zrotation
							End Site
							{
								OFFSET 0 0 0
							}
						}
					}
				}
			}
		}
	}
	JOINT Spine_virtual
	{
		OFFSET 0.000000 0.000000 0.000000
		CHANNELS 3 Xrotation Yrotation Zrotation
		JOINT Spine
		{
			OFFSET 0.000000 6.876099 0.125700
			CHANNELS 3 Xrotation Yrotation Zrotation
			JOINT Spine1
			{
				OFFSET 0.000000 5.730043 0.104720
				CHANNELS 3 Xrotation Yrotation Zrotation
				JOINT Spine1_split
				{
					OFFSET 0.000000 5.730043 0.104720
					CHANNELS 3 Xrotation Yrotation Zrotation
					JOINT Spine2
					{
						OFFSET 0.000000 5.730043 0.104720
						CHANNELS 3 Xrotation Yrotation Zrotation
						JOINT Neck_virtual
						{
							OFFSET 0.000000 0.000000 0.000000
							CHANNELS 3 Xrotation Yrotation Zrotation
							JOINT Neck
							{
								OFFSET 0.000000 10.314075 0.188496
								CHANNELS 3 Xrotation Yrotation Zrotation
								JOINT Head
								{
									OFFSET 0.000000 7.643700 -2.377400
									CHANNELS 3 Xrotation Yrotation Zrotation
									JOINT HeadTop_End
									{
										OFFSET 0.000000 43.788605 -13.619600
										CHANNELS 3 Xrotation Yrotation Zrotation
										End Site
										{
											OFFSET 0 0 0
										}
									}
								}
							}
						}
						JOINT LeftShoulder_virtual
						{
							OFFSET 0.000000 0.000000 0.000000
							CHANNELS 3 Xrotation Yrotation Zrotation
							JOINT LeftShoulder
							{
								OFFSET 2.196100 4.412489 0.087492
								CHANNELS 3 Xrotation Yrotation Zrotation
								JOINT LeftShoulder_split
								{
									OFFSET 2.196100 4.412489 0.087492
									CHANNELS 3 Xrotation Yrotation Zrotation
									JOINT LeftArm
									{
										OFFSET 8.771219 -2.981674 -0.026999
										CHANNELS 3 Xrotation Yrotation Zrotation
										JOINT LeftForeArm
										{
											OFFSET 8.512804 0.000000 -0.000000
											CHANNELS 3 Xrotation Yrotation Zrotation
											JOINT LeftHand
											{
												OFFSET 18.484802 0.000000 -0.000000
												CHANNELS 3 Xrotation Yrotation Zrotation
												End Site
												{
													OFFSET 0 0 0
												}
											}
										}
									}
								}
							}
						}
						JOINT RightShoulder_virtual
						{
							OFFSET 0.000000 0.000000 0.000000
							CHANNELS 3 Xrotation Yrotation Zrotation
							JOINT RightShoulder
							{
								OFFSET -2.196100 4.412496 0.070690
								CHANNELS 3 Xrotation Yrotation Zrotation
								JOINT RightShoulder_split
								{
									OFFSET -2.196100 4.412496 0.070690
									CHANNELS 3 Xrotation Yrotation Zrotation
									JOINT RightArm
									{
										OFFSET -8.771282 -2.981682 -0.094208
										CHANNELS 3 Xrotation Yrotation Zrotation
										JOINT RightForeArm
										{
											OFFSET -8.494598 0.000000 0.000000
											CHANNELS 3 Xrotation Yrotation Zrotation
											JOINT RightHand
											{
												OFFSET -18.483803 0.000000 0.000001
												CHANNELS 3 Xrotation Yrotation Zrotation
												End Site
												{
													OFFSET 0 0 0
												}
											}
										}
									}
								}
							}
						}
					}
				}
			}
		}
	}
}
MOTION
Frames: 10
Frame Time: 0.03333333
18.488426 31.804947 8.031328 0.000000 0.000000 0.000000 6.702178 -52.254922 3.526515 -8.897477 10.306403 -5.655302 45.451323 5.527451 8.569970 -25.889876 14.433091 5.331985 -18.429496 0.782686 0.754068 0.000000 0.000000 0.000000 8.489388 -54.298194 4.861800 -33.122285 24.443140 -19.378135 44.772563 9.803531 -2.169063 28.304280 -11.379583 59.030108 1.392537 9.408080 -9.924261 0.000000 0.000000 0.000000 10.248665 -41.623436 3.565210 6.327673 11.017861 5.978976 -1.391319 9.445958 -3.590275 0.257181 -1.002142 0.167904 0.000000 0.000000 0.000000 5.733897 10.681221 -2.335280 -15.756546 8.705891 13.332740 10.511805 -25.488586 11.783192 0.000000 0.000000 0.000000 1.822925 8.412696 -2.989546 -6.893220 -24.169429 -25.081641 -0.504101 4.329231 -7.607349 -25.935543 37.167936 -54.699830 10.344839 -44.915201 1.418277 0.000000 0.000000 0.000000 -1.104534 7.386486 -1.208338 11.602728 -15.417916 0.753683 -6.494948 -0.523986 -2.351053 21.450489 -36.197236 53.776166 173.701136 54.916647 -159.736733 0.000000 0.000000 0.000000 
18.481731 31.730001 9.489555 0.000000 0.000000 0.000000 5.845395 -49.797328 1.702907 -8.157765 11.149337 -6.459388 46.803595 4.738192 9.816914 -26.402081 9.906534 5.601703 -22.569332 1.273465 -0.260294 0.000000 0.000000 0.000000 8.272255 -52.063055 3.475018 -40.121002 27.502178 -13.602589 52.112335 11.045709 -1.977901 28.391116 -9.490626 54.480567 3.442805 7.051927 -7.360936 0.000000 0.000000 0.000000 9.765663 -39.394561 2.309673 6.903874 9.971264 6.687929 -1.271220 8.781006 -3.704541 0.227744 -1.054772 0.161606 0.000000 0.000000 0.000000 5.742718 10.086780 -2.246821 -15.695353 10.401920 13.311428 10.866914 -24.999963 11.880043 0.000000 0.000000 0.000000 1.964679 7.831360 -2.898897 -6.850842 -25.907478 -24.936935 0.306250 3.988509 -7.984613 -27.830038 35.524104 -53.606002 13.994427 -47.068596 5.140185 0.000000 0.000000 0.000000 -1.215692 6.623840 -1.267770 11.802005 -14.635881 1.299207 -5.274432 -0.243425 -2.546972 23.515137 -39.909331 56.610934 173.136498 52.982477 -159.018484 0.000000 0.000000 0.000000 
18.517752 31.776358 10.904356 0.000000 0.000000 0.000000 5.297372 -46.698143 -0.068774 -7.588751 11.719314 -6.989425 46.818225 3.681129 10.940852 -26.459695 4.593581 5.343312 -26.046660 1.813945 -1.337742 0.000000 0.000000 0.000000 7.801294 -48.992418 1.670716 -45.386535 28.128584 -7.450347 56.130761 10.891875 -1.209746 25.810402 -9.548769 48.592486 5.757069 4.912874 -5.564852 0.000000 0.000000 0.000000 9.739850 -36.376601 0.982302 7.550804 8.763713 7.598960 -1.052301 8.221592 -3.828493 0.195400 -1.066562 0.152737 0.000000 0.000000 0.000000 5.743522 9.560355 -2.140634 -15.561797 12.006418 13.160115 10.920285 -25.154501 12.003513 0.000000 0.000000 0.000000 2.111633 7.363579 -2.851368 -6.763087 -27.734058 -24.709944 0.990656 3.565738 -8.471507 -29.481767 33.758569 -52.599563 17.368804 -49.639786 8.737321 0.000000 0.000000 0.000000 -1.276268 5.956392 -1.377935 11.916325 -14.044304 1.795789 -4.126223 0.171426 -2.391100 23.979288 -42.903297 58.529435 172.150506 51.874119 -157.932839 0.000000 0.000000 0.000000 
18.601843 31.963858 12.423696 0.000000 0.000000 0.000000 5.229059 -42.897328 -1.501806 -6.677153 11.895346 -7.368111 45.533156 2.641124 11.676097 -26.326867 -0.748591 4.995799 -27.973204 2.370449 -2.419928 0.000000 0.000000 0.000000 6.769201 -45.774709 -0.333395 -49.414510 27.123859 -2.479072 56.758455 9.392848 -0.019296 23.936039 -9.442880 43.760578 8.146335 2.977130 -4.434036 0.000000 0.000000 0.000000 9.914545 -32.633039 -0.390663 8.179947 7.355662 8.577887 -0.684848 7.802791 -3.970309 0.167432 -1.031018 0.120929 0.000000 0.000000 0.000000 5.782597 9.151162 -2.039922 -15.310434 13.433631 12.977407 10.915808 -25.969977 12.252291 0.000000 0.000000 0.000000 2.298115 7.042037 -2.884222 -6.618108 -29.519292 -24.387670 1.515104 2.918953 -9.061209 -30.690690 31.796204 -51.787051 20.578487 -52.969002 12.330321 0.000000 0.000000 0.000000 -1.208931 5.445846 -1.549207 11.965009 -13.738435 2.134669 -2.889230 0.818617 -1.724160 22.736954 -44.786240 59.155203 170.916345 51.117187 -156.636797 0.000000 0.000000 0.000000 
18.739431 32.210243 13.963627 0.000000 0.000000 0.000000 5.510867 -38.380998 -2.637999 -5.261900 11.923409 -7.610800 43.291812 2.125966 11.841478 -26.353600 -5.472757 5.098553 -28.439957 2.855620 -3.407382 0.000000 0.000000 0.000000 6.258846 -41.722754 -1.817142 -52.113978 25.773138 0.848194 53.197010 7.355651 0.936993 23.075217 -8.887672 41.309537 10.013763 1.123365 -4.084611 0.000000 0.000000 0.000000 9.965355 -28.204448 -1.729058 8.753518 5.759266 9.523139 -0.185739 7.509715 -4.122056 0.166607 -0.927251 0.105957 0.000000 0.000000 0.000000 5.860806 8.864255 -1.986426 -14.898535 14.610497 12.836578 11.093674 -27.349693 12.639796 0.000000 0.000000 0.000000 2.540329 6.840049 -2.968806 -6.393736 -31.287683 -23.934132 1.863589 2.150498 -9.829964 -31.423187 29.579562 -51.232385 23.897903 -57.106221 16.226397 0.000000 0.000000 0.000000 -1.009740 5.110789 -1.785878 11.947939 -13.622689 2.346898 -1.881757 1.458695 -0.554449 20.075941 -45.333946 58.534906 169.767917 50.293685 -155.390328 0.000000 0.000000 0.000000 
18.891775 32.378067 15.494160 0.000000 0.000000 0.000000 6.120183 -33.376348 -3.498819 -3.126322 12.037503 -7.952762 40.370800 2.430929 11.467276 -27.130420 -9.356068 6.192915 -28.367613 3.134227 -3.948178 0.000000 0.000000 0.000000 6.806949 -36.807220 -2.624797 -53.015826 24.773117 2.773126 45.164056 4.917758 1.122993 21.597535 -8.791328 40.077802 11.016586 -0.568233 -4.685430 0.000000 0.000000 0.000000 9.730027 -23.361889 -2.961321 9.278696 4.006909 10.378165 0.393498 7.334327 -4.273668 0.205026 -0.794085 0.088771 0.000000 0.000000 0.000000 5.957966 8.693431 -1.996549 -14.365469 15.395950 12.768092 11.658174 -29.309670 13.181372 0.000000 0.000000 0.000000 2.829399 6.763296 -3.089014 -6.086479 -33.012668 -23.368048 2.116923 1.274092 -10.631006 -31.797577 27.157356 -50.912056 27.930230 -61.860484 21.017366 0.000000 0.000000 0.000000 -0.644032 4.956616 -2.099131 11.881009 -13.648897 2.444792 -0.955433 2.146701 0.979713 16.565299 -44.735881 57.216645 168.825119 49.452281 -154.285162 0.000000 0.000000 0.000000 
19.071432 32.486248 16.987301 0.000000 0.000000 0.000000 6.895562 -28.516344 -4.022955 -0.707560 12.004726 -8.203291 37.283998 3.037965 10.801431 -28.572833 -12.287014 7.043815 -27.872380 3.272918 -4.154349 0.000000 0.000000 0.000000 8.032053 -31.276153 -3.091820 -52.383880 23.944695 3.506453 35.119460 1.705160 0.538725 19.374294 -10.010673 38.528254 13.918124 -1.989231 -5.873968 0.000000 0.000000 0.000000 9.282177 -18.412114 -3.960230 9.696913 2.152142 11.139762 0.958159 7.255905 -4.429392 0.231074 -0.665583 0.056296 0.000000 0.000000 0.000000 6.040289 8.629860 -2.070057 -13.817546 15.686185 12.833594 12.800409 -31.792225 13.876631 0.000000 0.000000 0.000000 3.148114 6.817426 -3.223128 -5.740678 -34.670863 -22.754174 2.511509 0.311239 -11.299603 -32.130917 24.615826 -50.784574 33.748528 -66.756336 27.715719 0.000000 0.000000 0.000000 -0.139516 4.945621 -2.500256 11.783821 -13.686228 2.438961 -0.249658 2.741163 2.721497 12.931655 -43.411528 55.767716 168.062378 48.861124 -153.291274 0.000000 0.000000 0.000000 
19.270554 32.536869 18.282618 0.000000 0.000000 0.000000 7.429904 -23.645872 -4.276521 1.476140 11.591658 -8.379303 34.615877 3.605818 9.948470 -30.425139 -14.375475 6.966918 -26.853836 3.284441 -4.182939 0.000000 0.000000 0.000000 8.674642 -26.026169 -3.679442 -51.634427 22.469348 3.366844 25.395067 -2.224228 -0.620656 17.115095 -12.400883 36.736883 18.773849 -3.046263 -7.407887 0.000000 0.000000 0.000000 8.915146 -13.473889 -4.624086 10.015961 0.335897 11.824878 1.409854 7.253579 -4.586710 0.231831 -0.583252 0.033781 0.000000 0.000000 0.000000 6.118480 8.664121 -2.180271 -13.337400 15.442219 13.014073 14.553554 -34.753833 14.704460 0.000000 0.000000 0.000000 3.453409 6.986868 -3.351039 -5.394914 -36.254736 -22.137200 3.031022 -0.581576 -11.859476 -32.651081 22.059856 -50.911841 42.795916 -71.095822 37.651787 0.000000 0.000000 0.000000 0.430156 5.030065 -2.977497 11.725310 -13.636166 2.467853 0.330936 3.272095 4.488142 9.921803 -41.898481 54.934259 167.240802 49.076033 -152.174907 0.000000 0.000000 0.000000 
19.379440 32.572975 19.427786 0.000000 0.000000 0.000000 7.792827 -19.009132 -4.347862 3.213916 10.600625 -8.607749 32.679412 4.173765 9.065842 -32.404695 -15.648728 6.383793 -25.114093 3.182250 -4.211675 0.000000 0.000000 0.000000 8.514308 -20.894734 -4.201237 -51.091881 20.024204 2.642810 17.011713 -5.827874 -2.315030 14.699417 -14.925411 36.494093 19.098269 -3.644126 -9.931103 0.000000 0.000000 0.000000 8.955693 -8.858274 -5.021147 10.261557 -1.289206 12.538224 1.621452 7.312868 -4.705216 0.207685 -0.564823 0.004888 0.000000 0.000000 0.000000 6.188834 8.746127 -2.279463 -12.929343 14.737984 13.254861 16.883031 -38.093570 15.568735 0.000000 0.000000 0.000000 3.697966 7.232072 -3.447204 -5.079974 -37.691760 -21.581374 3.812339 -1.541262 -12.196854 -33.304180 19.572276 -51.441163 56.137393 -74.106159 51.764761 0.000000 0.000000 0.000000 1.013734 5.159495 -3.521780 11.723580 -13.464336 2.529284 0.792298 4.081179 6.189490 8.125159 -40.674340 55.060207 166.207176 50.220964 -150.817749 0.000000 0.000000 0.000000 
19.353653 32.589863 20.483070 0.000000 0.000000 0.000000 8.015575 -14.644276 -4.290283 4.516086 8.851461 -8.916955 31.530400 4.743166 8.312801 -34.001132 -16.053721 5.295251 -23.014252 3.008480 -4.396596 0.000000 0.000000 0.000000 8.389724 -15.830338 -4.337206 -50.456520 16.983496 2.215574 10.493698 -8.432317 -4.442612 11.676633 -17.160791 38.310312 12.014933 -3.468043 -13.496817 0.000000 0.000000 0.000000 9.483331 -4.662601 -5.188686 10.340102 -2.646146 13.324220 1.555844 7.375886 -4.752369 0.185931 -0.629842 0.002315 0.000000 0.000000 0.000000 6.253921 8.806040 -2.283427 -12.497317 13.726201 13.473373 19.551461 -41.610954 16.258439 0.000000 0.000000 0.000000 3.844107 7.454082 -3.468856 -4.818400 -38.941559 -21.120301 4.650809 -2.381946 -12.404392 -33.920833 17.270227 -52.488187 71.709015 -75.236999 67.906656 0.000000 0.000000 0.000000 1.505670 5.235759 -4.072969 11.816445 -13.098633 2.698989 1.172829 4.889069 7.624089 7.969014 -40.009445 56.334987 165.167607 51.824791 -149.477816 0.000000 0.000000 0.000000 
